<svg width="480" height="480" viewBox="0 0 480 480" fill="none" xmlns="http://www.w3.org/2000/svg">
<g clip-path="url(#clip0_1_3)">
<rect width="480" height="480" rx="240" fill="black"/>
<path d="M252.505 343.986C248.823 344.308 244.632 343.35 239.931 341.111C235.253 339.135 230.269 335.928 224.978 331.488C219.687 327.049 215.342 322.063 211.943 316.53C208.544 310.998 207.863 303.969 209.9 295.443L225.021 234.298C226.596 228.065 228.145 222.298 229.669 216.998C231.312 211.554 233.293 205.418 235.611 198.591L234.144 197.725C228.236 205.927 221.923 214.032 215.204 222.039C208.627 230.167 202.1 238.092 195.62 245.813L167.723 279.06C165.79 278.169 163 276.558 159.351 274.227C155.845 272.017 152.519 269.591 149.373 266.952C146.227 264.312 143.619 261.758 141.548 259.289C139.477 256.82 138.195 254.282 137.702 251.676C137.209 249.069 137.433 246.333 138.375 243.468C139.437 240.46 141.468 237.169 144.467 233.594L234.458 126.348C238.859 125.168 243.733 125.603 249.08 127.652C254.427 129.702 259.46 132.706 264.178 136.666C269.469 141.106 273.754 146.163 277.033 151.839C280.575 157.491 281.316 164.449 279.257 172.711L264.35 234.037C262.775 240.269 261.166 246.108 259.522 251.551C257.999 256.852 256.078 262.916 253.76 269.744L255.013 270.429C260.92 262.227 267.042 254.206 273.378 246.364C279.715 238.522 286.122 230.741 292.602 223.019L321.759 188.271C323.691 189.162 326.411 190.713 329.917 192.924C333.566 195.254 336.963 197.739 340.109 200.379C346.401 205.659 350.231 210.822 351.6 215.87C353.089 220.774 350.894 226.73 345.015 233.737L252.505 343.986Z" fill="white"/>
<path d="M345 173C345 161.954 353.954 153 365 153C376.046 153 385 161.954 385 173C385 184.046 376.046 193 365 193C353.954 193 345 184.046 345 173Z" fill="white"/>
<path d="M345 173C345 161.954 353.954 153 365 153C376.046 153 385 161.954 385 173C385 184.046 376.046 193 365 193C353.954 193 345 184.046 345 173Z" fill="white"/>
</g>
<defs>
<clipPath id="clip0_1_3">
<rect width="480" height="480" rx="240" fill="white"/>
</clipPath>
</defs>
</svg>
